<svg width="512" height="512" viewBox="0 0 96 96" fill="none" xmlns="http://www.w3.org/2000/svg">
  <defs>
    <radialGradient id="glow" cx="50%" cy="54%" r="54%">
      <stop offset="0%" stop-color="#22D3EE" stop-opacity="0.38"/>
      <stop offset="58%" stop-color="#00F5A0" stop-opacity="0.18"/>
      <stop offset="100%" stop-color="#00F5A0" stop-opacity="0"/>
    </radialGradient>
    <linearGradient id="face" x1="22" y1="18" x2="74" y2="80" gradientUnits="userSpaceOnUse">
      <stop offset="0%" stop-color="#0A2B45"/>
      <stop offset="46%" stop-color="#041A2F"/>
      <stop offset="100%" stop-color="#021327"/>
    </linearGradient>
    <linearGradient id="leaf" x1="39" y1="7" x2="62" y2="31" gradientUnits="userSpaceOnUse">
      <stop offset="0%" stop-color="#B8FFE8"/>
      <stop offset="44%" stop-color="#00F5A0"/>
      <stop offset="100%" stop-color="#22D3EE"/>
    </linearGradient>
    <radialGradient id="eye" cx="50%" cy="50%" r="50%">
      <stop offset="0%" stop-color="#F0FFFB"/>
      <stop offset="62%" stop-color="#22D3EE"/>
      <stop offset="100%" stop-color="#00F5A0" stop-opacity="0.7"/>
    </radialGradient>
    <filter id="softGlow" x="-40%" y="-40%" width="180%" height="180%">
      <feGaussianBlur stdDeviation="2.6" result="blur"/>
      <feMerge>
        <feMergeNode in="blur"/>
        <feMergeNode in="SourceGraphic"/>
      </feMerge>
    </filter>
  </defs>
  <circle cx="48" cy="52" r="42" fill="url(#glow)"/>
  <path d="M48 15C45 11 43 8 44 4C51 5 56 10 57 17C62 13 69 13 75 17C72 25 64 29 56 25C54 29 51 32 48 34C45 31 43 28 41 25C33 29 25 25 22 17C28 13 35 13 40 17C41 15 44 15 48 15Z" fill="url(#leaf)" filter="url(#softGlow)"/>
  <path d="M48 35C48 26 48 18 48 12" stroke="#A7F3D0" stroke-width="2" stroke-linecap="round" opacity="0.85"/>
  <rect x="20" y="28" width="56" height="50" rx="20" fill="url(#face)" stroke="#A7F3D0" stroke-opacity="0.45" stroke-width="2"/>
  <path d="M27 47C33 39 63 39 69 47" stroke="#22D3EE" stroke-opacity="0.24" stroke-width="1.4" stroke-linecap="round"/>
  <path d="M32 68C38 72 58 72 64 68" stroke="#A7F3D0" stroke-opacity="0.36" stroke-width="1.5" stroke-linecap="round"/>
  <g filter="url(#softGlow)">
    <ellipse cx="38" cy="53" rx="5.5" ry="4.4" fill="url(#eye)"/>
    <ellipse cx="58" cy="53" rx="5.5" ry="4.4" fill="url(#eye)"/>
  </g>
  <path d="M43 64C46 66 50 66 53 64" stroke="#A7F3D0" stroke-width="2" stroke-linecap="round" opacity="0.72"/>
  <path d="M28 79C34 86 62 86 68 79" stroke="#22D3EE" stroke-opacity="0.28" stroke-width="2" stroke-linecap="round"/>
</svg>
